<svg width="17" height="18" viewBox="0 0 17 18" fill="none" xmlns="http://www.w3.org/2000/svg">
<path fill-rule="evenodd" clip-rule="evenodd" d="M17 8.87134C17 8.25631 16.9448 7.66493 16.8423 7.0972H8.67337V10.4523H13.3413C13.1403 11.5365 12.5292 12.4551 11.6106 13.0701V15.2464H14.4137C16.0538 13.7364 17 11.5128 17 8.87134Z" fill="#4285F4"/>
<path fill-rule="evenodd" clip-rule="evenodd" d="M8.67333 17.3464C11.0152 17.3464 12.9786 16.5698 14.4137 15.2451L11.6105 13.0688C10.8338 13.5892 9.84032 13.8967 8.67333 13.8967C6.41426 13.8967 4.50214 12.371 3.82008 10.3209H0.922319V12.5681C2.34952 15.4028 5.28276 17.3464 8.67333 17.3464Z" fill="#34A853"/>
<path fill-rule="evenodd" clip-rule="evenodd" d="M3.82031 10.3212C3.64684 9.80081 3.54828 9.24492 3.54828 8.67325C3.54828 8.10158 3.64684 7.54569 3.82031 7.02527V4.77803H0.922552C0.335115 5.94896 0 7.27365 0 8.67325C0 10.0728 0.335115 11.3975 0.922552 12.5685L3.82031 10.3212Z" fill="#FBBC05"/>
<path fill-rule="evenodd" clip-rule="evenodd" d="M8.67333 3.44971C9.94677 3.44971 11.0901 3.88734 11.989 4.74681L14.4767 2.25907C12.9746 0.859472 11.0113 0 8.67333 0C5.28276 0 2.34952 1.94367 0.922319 4.77835L3.82008 7.02559C4.50214 4.97547 6.41426 3.44971 8.67333 3.44971Z" fill="#EA4335"/>
</svg>
