<svg width="44" height="43" viewBox="0 0 44 43" fill="none" xmlns="http://www.w3.org/2000/svg">
<path d="M33.076 43.0005H2.94165C1.16793 43.0005 -0.202051 41.1277 0.0245688 39.0143L2.47081 14.8909C2.65838 13.1208 3.90809 11.7967 5.39157 11.7967H6.90676C6.90676 11.8108 26.1867 11.7967 26.1867 11.7967C26.1903 11.8038 30.6298 11.7967 30.6298 11.7967C32.113 11.7967 33.3628 13.1206 33.5505 14.8909L35.9968 39.0143C36.2232 41.1277 34.8495 43.0005 33.076 43.0005Z" fill="#007AF7"/>
<path d="M28.6112 14.6826C28.6431 15.1181 28.2996 15.4862 27.8642 15.4862C27.4676 15.4862 27.142 15.1817 27.1136 14.7888L26.9012 11.7973L26.8978 11.7725C26.5756 7.27294 22.8938 3.71854 18.4296 3.5097C18.2915 3.50255 18.1535 3.49907 18.0154 3.49907C13.3954 3.49907 9.55788 7.16678 9.12591 11.7973C9.11527 11.8645 9.10812 11.9318 9.10464 11.9991L8.90277 14.7888C8.87802 15.1817 8.54872 15.4862 8.15581 15.4862C7.72035 15.4862 7.37694 15.1181 7.40884 14.6826L7.60704 11.8895C7.61071 11.8576 7.61071 11.8293 7.61768 11.7974C8.02123 6.72436 11.951 2.51852 17.0275 2.04419C17.3568 2.01229 17.6861 1.99817 18.0081 1.99817C23.4424 1.99817 28.0056 6.24655 28.395 11.663L28.4056 11.7976L28.6112 14.6826Z" fill="#007AF7"/>
<path d="M16.2167 20.6817C16.2167 21.09 16.1433 21.5077 15.9895 21.9138L12.7684 30.366L10.8596 35.3745C10.1759 37.164 8.17517 38.0612 6.38568 37.3798C4.5962 36.6985 3.69907 34.6954 4.38039 32.9059L9.5127 19.4452C10.0404 18.064 11.355 17.2151 12.7523 17.2151H12.7844C13.1835 17.2197 13.5897 17.293 13.9842 17.4423C15.3678 17.97 16.2167 19.2846 16.2167 20.6817Z" fill="#007AF7"/>
<path d="M15.7565 20.6828C15.7565 19.4695 15.0192 18.3294 13.819 17.8717C13.4974 17.7501 13.1674 17.6867 12.8423 17.6759L12.7773 17.6745H12.7504C11.5369 17.6745 10.3968 18.4121 9.93915 19.6099L9.93897 19.6097L4.80681 33.0699L4.80698 33.0701C4.21565 34.6233 4.99438 36.3613 6.54701 36.9525C8.09978 37.5437 9.83602 36.7654 10.4296 35.2119L15.5594 21.7515C15.6931 21.3981 15.7565 21.0358 15.7565 20.6828ZM16.6733 20.6828C16.6733 21.146 16.59 21.6187 16.4163 22.0772L16.416 22.0781L11.2862 35.5389L11.286 35.5392C10.5121 37.5646 8.24696 38.5807 6.22078 37.8092C4.19444 37.0377 3.17892 34.7697 3.95022 32.7439L9.08256 19.2829L9.08274 19.2826L9.11139 19.2097C9.727 17.6884 11.1941 16.7578 12.7504 16.7578H12.7879L12.8726 16.7597C13.2687 16.7728 13.6695 16.8457 14.0609 16.9839L14.1445 17.0145L14.1458 17.0151L14.2188 17.0437C15.7425 17.6593 16.6733 19.1265 16.6733 20.6828Z" fill="white"/>
<path d="M21.1537 32.9059L17.9647 24.5386L16.0238 19.4452C15.4961 18.064 14.1815 17.2151 12.7842 17.2151H12.7521C12.3506 17.2197 11.9445 17.293 11.5499 17.4423C10.1663 17.97 9.31762 19.2846 9.31762 20.6819C9.31762 21.0902 9.39095 21.5079 9.54478 21.914L12.7682 30.3662L14.6771 35.3747C15.2094 36.7742 16.5515 37.6277 17.9649 37.6048C18.3573 37.6002 18.7586 37.5269 19.1488 37.38C20.9379 36.6985 21.835 34.6956 21.1537 32.9059Z" fill="white"/>
<path d="M12.7843 16.7578C14.3406 16.7578 15.8077 17.6883 16.4233 19.2097L16.452 19.2826L16.4522 19.2829L21.582 32.7437L21.5822 32.7439L21.6169 32.8389C22.3214 34.8403 21.3063 37.0498 19.312 37.8094L19.3104 37.8099C18.8709 37.9754 18.4173 38.0586 17.9721 38.064L17.9723 38.0642C16.372 38.0901 14.8518 37.1242 14.2488 35.5389L9.11659 22.0783L9.11623 22.0774C8.94257 21.6189 8.8593 21.1462 8.85929 20.6829C8.85929 19.1018 9.8196 17.6127 11.3866 17.0151L11.3877 17.0145C11.8334 16.8459 12.2929 16.763 12.7469 16.7578H12.7843ZM9.77604 20.6829C9.77604 21.036 9.83943 21.3983 9.97317 21.7517L13.1966 30.2038L15.1055 35.2124V35.2128L15.1508 35.3252C15.6398 36.4719 16.7693 37.1667 17.9575 37.1475H17.9596L18.0233 37.146C18.3416 37.1353 18.6673 37.0723 18.9857 36.9526L19.0579 36.9242C20.562 36.3072 21.3074 34.5993 20.7254 33.0703L15.5956 19.6097C15.138 18.4119 13.9978 17.6745 12.7843 17.6745H12.7574L12.6919 17.6759C12.3646 17.6867 12.0346 17.75 11.713 17.8715L11.7132 17.8717C10.5132 18.3294 9.77604 19.4695 9.77604 20.6829Z" fill="white"/>
<path d="M23.772 20.5162C23.772 18.5922 25.3317 17.0326 27.2556 17.0326C29.1796 17.0326 30.7393 18.5922 30.7393 20.5162V34.084C30.7393 36.008 29.1796 37.5676 27.2556 37.5676C25.3317 37.5676 23.772 36.008 23.772 34.084V20.5162Z" fill="white"/>
<path d="M30.279 20.5172C30.279 18.8464 28.9245 17.492 27.2537 17.492C25.5829 17.492 24.2284 18.8464 24.2284 20.5172V34.0851C24.2284 35.7559 25.5829 37.1103 27.2537 37.1103C28.9245 37.1103 30.279 35.7559 30.279 34.0851V20.5172ZM31.1957 34.0851C31.1957 36.2622 29.4308 38.0271 27.2537 38.0271C25.0766 38.0271 23.3117 36.2622 23.3117 34.0851V20.5172C23.3117 18.3401 25.0766 16.5752 27.2537 16.5752C29.4308 16.5752 31.1957 18.3401 31.1957 20.5172V34.0851Z" fill="white"/>
<path d="M37.3122 14.2041Lnan nanL37.3122 14.2041C38.0091 10.959 40.5441 8.424 43.7892 7.72715Lnan nanL43.7892 7.72715Lnan nanL43.7892 7.72715C40.5441 7.03029 38.0091 4.49533 37.3122 1.25018Lnan nanL37.3122 1.25018Lnan nanL37.3122 1.25018C36.6154 4.49533 34.0804 7.03029 30.8353 7.72715Lnan nanL30.8353 7.72715Lnan nanL30.8353 7.72715C34.0804 8.424 36.6154 10.959 37.3122 14.2041Lnan nanL37.3122 14.2041Z" fill="#007AF7"/>
<path d="M30.8347 5.1613Lnan nanL30.8347 5.1613C31.1123 3.86836 32.1223 2.85838 33.4153 2.58074Lnan nanL33.4153 2.58074Lnan nanL33.4153 2.58074C32.1223 2.3031 31.1123 1.29312 30.8347 0.000185454Lnan nanL30.8347 0.000185454Lnan nanL30.8347 0.000185454C30.5571 1.29312 29.5471 2.3031 28.2541 2.58074Lnan nanL28.2541 2.58074Lnan nanL28.2541 2.58074C29.5471 2.85838 30.5571 3.86836 30.8347 5.1613Lnan nanL30.8347 5.1613Z" fill="#007AF7"/>
</svg>
