<svg width="170" height="52" viewBox="0 0 170 52" fill="none" xmlns="http://www.w3.org/2000/svg">
<path d="M37.1261 47.393H7.14096C5.37602 47.393 4.01282 45.5296 4.23831 43.4266L6.67245 19.4226C6.85908 17.6613 8.10261 16.3438 9.57874 16.3438H11.0864C11.0864 16.3578 30.2709 16.3438 30.2709 16.3438C30.2745 16.3509 34.692 16.3438 34.692 16.3438C36.1679 16.3438 37.4115 17.6612 37.5983 19.4226L40.0324 43.4266C40.2577 45.5296 38.8909 47.393 37.1261 47.393Z" fill="#007AF7"/>
<path d="M32.6834 19.2154C32.7151 19.6487 32.3734 20.015 31.9401 20.015C31.5455 20.015 31.2215 19.712 31.1932 19.321L30.9819 16.3443L30.9785 16.3197C30.6579 11.8424 26.9943 8.30559 22.5522 8.09779C22.4148 8.09068 22.2775 8.08721 22.1401 8.08721C17.5429 8.08721 13.7244 11.7368 13.2946 16.3443C13.284 16.4113 13.2769 16.4782 13.2734 16.5452L13.0726 19.321C13.0479 19.712 12.7203 20.015 12.3293 20.015C11.896 20.015 11.5543 19.6487 11.586 19.2154L11.7832 16.4361C11.7869 16.4043 11.7869 16.3762 11.7938 16.3445C12.1954 11.2965 16.1057 7.11152 21.1571 6.63954C21.4848 6.6078 21.8124 6.59375 22.1328 6.59375C27.5402 6.59375 32.0808 10.8211 32.4683 16.2108L32.4789 16.3447L32.6834 19.2154Z" fill="#007AF7"/>
<path d="M20.3503 25.1848C20.3503 25.5911 20.2773 26.0067 20.1242 26.4108L16.9191 34.8211L15.0197 39.8049C14.3394 41.5855 12.3486 42.4782 10.5679 41.8002C8.78731 41.1223 7.89462 39.1291 8.57257 37.3485L13.6795 23.9544C14.2045 22.5801 15.5126 21.7354 16.903 21.7354H16.935C17.3321 21.7399 17.7362 21.8129 18.1289 21.9614C19.5056 22.4865 20.3503 23.7946 20.3503 25.1848Z" fill="#007AF7"/>
<path d="M19.8924 25.1858C19.8924 23.9786 19.1587 22.8441 17.9645 22.3886C17.6444 22.2677 17.3161 22.2046 16.9926 22.1939L16.9279 22.1925H16.9012C15.6936 22.1925 14.5592 22.9264 14.1038 24.1183L14.1036 24.1181L8.99687 37.5117L8.99705 37.5118C8.40865 39.0573 9.18352 40.7868 10.7285 41.375C12.2735 41.9632 14.0012 41.1889 14.5918 39.643L19.6962 26.2493C19.8293 25.8976 19.8924 25.5371 19.8924 25.1858ZM20.8046 25.1858C20.8046 25.6468 20.7217 26.1172 20.5489 26.5734L20.5486 26.5743L15.4441 39.9684L15.444 39.9687C14.6739 41.9841 12.42 42.9951 10.4038 42.2275C8.38755 41.4598 7.37705 39.203 8.14453 37.1872L13.2515 23.7929L13.2516 23.7926L13.2801 23.7201C13.8927 22.2062 15.3526 21.2803 16.9012 21.2803H16.9384L17.0227 21.2822C17.4168 21.2952 17.8157 21.3678 18.2052 21.5053L18.2884 21.5358L18.2896 21.5363L18.3623 21.5648C19.8785 22.1773 20.8046 23.6373 20.8046 25.1858Z" fill="white"/>
<path d="M25.2629 37.3485L22.0897 29.0226L20.1583 23.9544C19.6333 22.5801 18.3252 21.7354 16.9348 21.7354H16.9028C16.5033 21.7399 16.0992 21.8129 15.7066 21.9614C14.3299 22.4865 13.4854 23.7946 13.4854 25.1849C13.4854 25.5912 13.5583 26.0068 13.7114 26.411L16.9189 34.8213L18.8183 39.8051C19.3479 41.1976 20.6834 42.0469 22.0898 42.0241C22.4803 42.0195 22.8796 41.9466 23.2679 41.8004C25.0481 41.1223 25.9408 39.1293 25.2629 37.3485Z" fill="white"/>
<path d="M16.9349 21.2803C18.4835 21.2803 19.9433 22.2062 20.5559 23.7201L20.5844 23.7926L20.5846 23.7929L25.689 37.187L25.6892 37.1872L25.7238 37.2818C26.4248 39.2733 25.4146 41.4718 23.4302 42.2277L23.4286 42.2282C22.9913 42.3928 22.54 42.4757 22.097 42.481L22.0972 42.4812C20.5048 42.507 18.9921 41.5459 18.3921 39.9684L13.2853 26.5745L13.285 26.5736C13.1122 26.1173 13.0293 25.647 13.0293 25.186C13.0293 23.6127 13.9849 22.131 15.5441 21.5363L15.5452 21.5358C15.9887 21.368 16.4459 21.2854 16.8976 21.2803H16.9349ZM13.9415 25.186C13.9415 25.5373 14.0046 25.8978 14.1377 26.2495L17.3452 34.6598L19.2446 39.6436V39.6439L19.2897 39.7558C19.7763 40.8968 20.9002 41.5882 22.0824 41.569H22.0846L22.148 41.5676C22.4647 41.557 22.7887 41.4942 23.1056 41.3752L23.1774 41.3468C24.674 40.7329 25.4158 39.0335 24.8367 37.512L19.7322 24.1181C19.2769 22.9262 18.1424 22.1925 16.9349 22.1925H16.9081L16.8429 22.1939C16.5173 22.2046 16.1889 22.2676 15.8689 22.3885L15.8691 22.3886C14.675 22.8441 13.9415 23.9786 13.9415 25.186Z" fill="white"/>
<path d="M27.8682 25.0201C27.8682 23.1057 29.4201 21.5537 31.3345 21.5537C33.249 21.5537 34.8009 23.1057 34.8009 25.0201V38.5207C34.8009 40.4352 33.249 41.9871 31.3345 41.9871C29.4201 41.9871 27.8682 40.4352 27.8682 38.5207V25.0201Z" fill="white"/>
<path d="M34.3429 25.0211C34.3429 23.3586 32.9952 22.0108 31.3326 22.0108C29.6701 22.0108 28.3224 23.3586 28.3224 25.0211V38.5218C28.3224 40.1843 29.6701 41.532 31.3326 41.532C32.9952 41.532 34.3429 40.1843 34.3429 38.5218V25.0211ZM35.2551 38.5218C35.2551 40.6881 33.499 42.4443 31.3326 42.4443C29.1663 42.4443 27.4102 40.6881 27.4102 38.5218V25.0211C27.4102 22.8548 29.1663 21.0986 31.3326 21.0986C33.499 21.0986 35.2551 22.8548 35.2551 25.0211V38.5218Z" fill="white"/>
<path d="M41.3414 18.7393Lnan nanL41.3414 18.7393C42.0348 15.5102 44.5572 12.9878 47.7863 12.2944Lnan nanL47.7863 12.2944Lnan nanL47.7863 12.2944C44.5572 11.601 42.0348 9.07854 41.3414 5.84946Lnan nanL41.3414 5.84946Lnan nanL41.3414 5.84946C40.648 9.07854 38.1256 11.601 34.8965 12.2944Lnan nanL34.8965 12.2944Lnan nanL34.8965 12.2944C38.1256 12.9878 40.648 15.5102 41.3414 18.7393Lnan nanL41.3414 18.7393Z" fill="#007AF7"/>
<path d="M34.8959 9.74121Lnan nanL34.8959 9.74121C35.1722 8.45468 36.1772 7.4497 37.4637 7.17343Lnan nanL37.4637 7.17343Lnan nanL37.4637 7.17343C36.1772 6.89717 35.1722 5.89218 34.8959 4.60565Lnan nanL34.8959 4.60565Lnan nanL34.8959 4.60565C34.6196 5.89219 33.6147 6.89717 32.3281 7.17343Lnan nanL32.3281 7.17343Lnan nanL32.3281 7.17343C33.6147 7.4497 34.6196 8.45468 34.8959 9.74121Lnan nanL34.8959 9.74121Z" fill="#007AF7"/>
<path d="M60 19.7148H66.5703L73.5097 36.645H73.805L80.7444 19.7148H87.3147V44.9132H82.147V28.5121H81.9379L75.4168 44.7902H71.8979L65.3768 28.4506H65.1676V44.9132H60V19.7148Z" fill="#00272E"/>
<path d="M94.8416 52.0003C94.1772 52.0003 93.5538 51.947 92.9714 51.8403C92.3972 51.7419 91.9215 51.6148 91.5441 51.4589L92.7253 47.5463C93.3405 47.7349 93.8942 47.8375 94.3863 47.8539C94.8867 47.8703 95.3173 47.7554 95.6783 47.5094C96.0474 47.2633 96.3468 46.845 96.5764 46.2544L96.884 45.4546L90.1046 26.0144H95.6167L99.5294 39.8932H99.7262L103.676 26.0144H109.225L101.879 46.9557C101.527 47.9728 101.047 48.8587 100.44 49.6133C99.8411 50.3762 99.0823 50.9627 98.1636 51.3728C97.245 51.7911 96.1376 52.0003 94.8416 52.0003Z" fill="#00272E"/>
<path d="M124.026 36.8665V26.0144H129.268V44.9132H124.236V41.4805H124.039C123.612 42.5878 122.903 43.4778 121.91 44.1504C120.926 44.823 119.724 45.1593 118.305 45.1593C117.042 45.1593 115.93 44.8722 114.971 44.298C114.011 43.7239 113.261 42.9077 112.719 41.8496C112.186 40.7914 111.915 39.5241 111.907 38.0477V26.0144H117.149V37.1126C117.157 38.2281 117.456 39.1099 118.047 39.7579C118.637 40.4059 119.429 40.7299 120.421 40.7299C121.053 40.7299 121.644 40.5864 122.193 40.2993C122.743 40.004 123.186 39.5692 123.522 38.9951C123.867 38.4209 124.035 37.7114 124.026 36.8665Z" fill="#00272E"/>
<path d="M133.362 44.9132V41.7881L142.615 30.3331V30.1978H133.682V26.0144H148.926V29.4226L140.24 40.5946V40.7299H149.246V44.9132H133.362Z" fill="#00272E"/>
<path d="M161.326 45.2824C159.382 45.2824 157.708 44.8886 156.306 44.1012C154.911 43.3055 153.837 42.1818 153.082 40.7299C152.327 39.2699 151.95 37.5432 151.95 35.55C151.95 33.606 152.327 31.8998 153.082 30.4315C153.837 28.9633 154.899 27.819 156.269 26.9988C157.647 26.1785 159.263 25.7684 161.117 25.7684C162.363 25.7684 163.524 25.9693 164.599 26.3713C165.681 26.765 166.625 27.3597 167.428 28.1553C168.241 28.951 168.872 29.9517 169.323 31.1575C169.774 32.3551 170 33.7577 170 35.3654V36.805H154.042V33.5567H165.066C165.066 32.8021 164.902 32.1336 164.574 31.5512C164.246 30.9688 163.791 30.5136 163.208 30.1855C162.634 29.8492 161.966 29.681 161.203 29.681C160.407 29.681 159.702 29.8656 159.086 30.2347C158.479 30.5956 158.004 31.0837 157.659 31.6988C157.315 32.3058 157.138 32.9826 157.13 33.729V36.8173C157.13 37.7524 157.302 38.5603 157.647 39.2411C158 39.922 158.496 40.4469 159.136 40.816C159.775 41.1852 160.534 41.3697 161.412 41.3697C161.994 41.3697 162.527 41.2877 163.011 41.1236C163.495 40.9596 163.91 40.7135 164.254 40.3854C164.599 40.0573 164.861 39.6554 165.042 39.1796L169.889 39.4995C169.643 40.6643 169.139 41.6814 168.376 42.5509C167.621 43.4122 166.645 44.0848 165.448 44.5687C164.258 45.0445 162.884 45.2824 161.326 45.2824Z" fill="#00272E"/>
</svg>
